<svg width="16" height="16" viewBox="0 0 16 16" fill="none" xmlns="http://www.w3.org/2000/svg">
<g clip-path="url(#clip0_615_14)">
<path d="M8 4C5.8 4 4 5.8 4 8C4 10.2 5.8 12 8 12C10.2 12 12 10.2 12 8C12 5.8 10.2 4 8 4Z" fill="#BAE1E7"/>
<path d="M8 1C11.9 1 15 4.1 15 8C15 11.9 11.9 15 8 15C4.1 15 1 11.9 1 8C1 4.1 4.1 1 8 1ZM8 0C3.6 0 0 3.6 0 8C0 12.4 3.6 16 8 16C12.4 16 16 12.4 16 8C16 3.6 12.4 0 8 0Z" fill="black"/>
</g>
<defs>
<clipPath id="clip0_615_14">
<rect width="16" height="16" fill="white"/>
</clipPath>
</defs>
</svg>
