<svg width="292" height="292" viewBox="0 0 292 292" fill="none" xmlns="http://www.w3.org/2000/svg">
<path d="M145.659 0C226.109 0 291.319 65.219 291.319 145.66C291.319 226.101 226.109 291.319 145.659 291.319C65.209 291.319 0 226.1 0 145.66C0 65.22 65.21 0 145.659 0Z" fill="#0E76A8"/>
<path d="M82.079 200.136H109.354V109.226H82.079V200.136ZM188.338 106.077C175.101 106.077 163.257 110.911 154.855 121.581V108.927H127.48V200.137H154.855V150.813C154.855 140.389 164.405 130.22 176.367 130.22C188.329 130.22 191.279 140.389 191.279 150.558V200.128H218.554V148.528C218.553 112.686 201.584 106.077 188.338 106.077ZM95.589 100.141C103.127 100.141 109.245 94.023 109.245 86.485C109.245 78.947 103.127 72.83 95.589 72.83C88.051 72.83 81.933 78.948 81.933 86.486C81.933 94.024 88.051 100.141 95.589 100.141Z" fill="white"/>
</svg>
